<svg width="50" height="50" viewBox="0 0 50 50" fill="none" xmlns="http://www.w3.org/2000/svg">
    <g clip-path="url(#clip0_401_1735)">
        <path d="M7.71503 27.9902H12.1714V31.2795H7.71503V27.9902Z" fill="#3570F2"/>
        <path d="M47.037 19.277H2.96298C1.34736 19.277 0.0376892 20.5867 0.0376892 22.2023V47.0748C0.0376892 48.6903 1.34736 50 2.96298 50H47.037C48.6526 50 49.9623 48.6903 49.9623 47.0747V22.2023C49.9623 20.5867 48.6526 19.277 47.037 19.277ZM11.8355 43.6524H4.59511V40.7271H11.8355V43.6524ZM15.0967 31.7671C15.0967 33.1112 14.0031 34.2048 12.659 34.2048H7.22744C5.8833 34.2048 4.78974 33.1112 4.78974 31.7671V27.5026C4.78974 26.1585 5.8833 25.0649 7.22744 25.0649H12.6589C14.003 25.0649 15.0966 26.1585 15.0966 27.5026V31.7671H15.0967ZM23.0253 43.6524H15.7849V40.7271H23.0253V43.6524ZM34.2151 43.6524H26.9747V40.7271H34.2151V43.6524ZM45.4049 43.6524H38.1645V40.7271H45.4049V43.6524Z" fill="#3570F2"/>
        <path d="M39.3075 7.10607L33.0583 0.856848C31.9159 -0.285535 30.0638 -0.285535 28.9213 0.856848L13.4264 16.3518H30.59L39.3075 7.10607Z" fill="#3570F2"/>
        <path d="M39.1278 16.3517L43.7019 11.5005L41.3769 9.17548L34.6105 16.3517H39.1278Z" fill="#3570F2"/>
        <path d="M47.037 16.3518C47.6653 16.3518 48.2704 16.4526 48.8382 16.6367L45.7714 13.5699L43.1484 16.3519H47.037V16.3518Z" fill="#3570F2"/>
    </g>
    <defs>
        <clipPath id="clip0_401_1735">
            <rect width="50" height="50" fill="white"/>
        </clipPath>
    </defs>
</svg>
