<svg width="40" height="40" viewBox="0 0 40 40" fill="none" xmlns="http://www.w3.org/2000/svg">
    <g clip-path="url(#clip0_401_2317)">
        <path d="M39.6567 30.8994L35.3625 26.6047C34.9197 27.5366 34.0727 28.2527 32.9981 28.508L32.4131 28.6469L32.2742 29.2324C32.0367 30.2323 30.92 32.1153 28.5695 31.9242L27.9694 31.8755L27.6564 32.3891C27.1295 33.2537 26.2452 33.8447 25.262 34.0199L30.8994 39.6567C31.1866 39.9439 31.602 40.0619 31.9973 39.9686C32.3926 39.8753 32.7113 39.5839 32.8398 39.1987L34.4294 34.4293L39.1988 32.8397C39.5841 32.7112 39.8754 32.3925 39.9687 31.9972C40.062 31.6019 39.9439 31.1865 39.6567 30.8994V30.8994Z" fill="white"/>
        <path d="M12.3436 32.3893L12.0306 31.8756L11.4306 31.9243C9.08002 32.1154 7.9633 30.2325 7.72588 29.2325L7.58689 28.6471L7.00189 28.5082C5.92728 28.2528 5.08033 27.5368 4.63752 26.6048L0.343298 30.8994C0.0561102 31.1866 -0.0619367 31.602 0.0314227 31.9973C0.124704 32.3926 0.41611 32.7114 0.801345 32.8398L5.57072 34.4294L7.16033 39.1988C7.28877 39.5841 7.60752 39.8754 8.00283 39.9687C8.39814 40.062 8.81353 39.944 9.10072 39.6568L14.7381 34.02C13.7549 33.8447 12.8705 33.2539 12.3436 32.3893V32.3893Z" fill="white"/>
        <path d="M25.655 31.1696L26.7196 29.4227L28.7587 29.5883C29.3343 29.6349 29.8601 29.2541 29.9937 28.691L30.4664 26.7005L32.4563 26.2279C33.0192 26.0942 33.4004 25.5695 33.3535 24.9928L33.1879 22.9542L34.9347 21.8897C35.4288 21.5886 35.6291 20.972 35.4065 20.438L34.6193 18.55L35.9515 16.9978C36.3283 16.5588 36.3284 15.9105 35.9516 15.4714L34.6193 13.9187L35.4065 12.0306C35.6291 11.4966 35.4288 10.8799 34.9347 10.5788L33.1879 9.51432L33.3535 7.47572C33.4003 6.899 33.0192 6.37439 32.4563 6.24064L30.4664 5.76807L29.9937 3.77752C29.86 3.21447 29.3343 2.83361 28.7587 2.88025L26.7196 3.04588L25.655 1.299C25.3539 0.804785 24.737 0.604707 24.2031 0.827285L22.3153 1.61494L20.7632 0.282598C20.3242 -0.0941992 19.6757 -0.0941992 19.2367 0.282598L17.6847 1.61479L15.7969 0.827129C15.2627 0.604395 14.6462 0.804707 14.345 1.29885L13.2804 3.04572L11.2413 2.8801C10.6645 2.83393 10.14 3.21432 10.0063 3.77736L9.53359 5.76791L7.54367 6.24064C6.98078 6.37439 6.59961 6.899 6.64648 7.47572L6.81211 9.51432L5.06531 10.5788C4.57125 10.8799 4.37086 11.4965 4.59352 12.0306L5.3807 13.9187L4.04836 15.4714C3.67164 15.9105 3.67172 16.5588 4.04852 16.9978L5.3807 18.55L4.59367 20.438C4.37102 20.972 4.57141 21.5886 5.06547 21.8897L6.81227 22.9542L6.64664 24.9928C6.59984 25.5695 6.98094 26.0942 7.54383 26.2279L9.53375 26.7005L10.0065 28.691C10.1402 29.2541 10.6648 29.6345 11.2414 29.5883L13.2805 29.4227L14.3452 31.1696C14.6462 31.6637 15.2629 31.864 15.797 31.6413L17.6848 30.8536L19.2369 32.1857C19.6759 32.5625 20.3244 32.5625 20.7634 32.1857L22.3154 30.8536L24.2032 31.6413C24.737 31.8638 25.3539 31.6637 25.655 31.1696ZM19.5734 24.5943C19.1159 25.0519 18.3738 25.0521 17.9162 24.5943L11.0125 17.6906C10.5548 17.2331 10.5548 16.491 11.0125 16.0334L14.5628 12.483C15.0204 12.0253 15.7624 12.0253 16.2201 12.483L18.7448 15.0076L24.4074 9.34494C24.865 8.88729 25.607 8.88729 26.0647 9.34494L29.615 12.8953C30.0727 13.3529 30.0727 14.0949 29.615 14.5525L19.5734 24.5943Z" fill="white"/>
        <path d="M19.5734 17.4935C19.1159 17.9512 18.3738 17.9512 17.9162 17.4935L15.3915 14.9689L13.4984 16.862L18.7449 22.1083L27.1292 13.7239L25.2362 11.8309L19.5734 17.4935Z" fill="white"/>
    </g>
    <defs>
        <clipPath id="clip0_401_2317">
            <rect width="40" height="40" fill="white"/>
        </clipPath>
    </defs>
</svg>
