<svg width="40" height="40" viewBox="0 0 40 40" fill="none" xmlns="http://www.w3.org/2000/svg">
    <g clip-path="url(#clip0_401_2290)">
        <path d="M6.17203 22.3922H9.73711V25.0236H6.17203V22.3922Z" fill="white"/>
        <path d="M37.6296 15.4217H2.37039C1.07789 15.4217 0.0301514 16.4694 0.0301514 17.7619V37.6599C0.0301514 38.9523 1.07789 40 2.37039 40H37.6296C38.9221 40 39.9698 38.9523 39.9698 37.6598V17.7619C39.9698 16.4694 38.9221 15.4217 37.6296 15.4217ZM9.46843 34.922H3.67609V32.5818H9.46843V34.922ZM12.0773 25.4137C12.0773 26.489 11.2025 27.3639 10.1272 27.3639H5.78195C4.70664 27.3639 3.83179 26.489 3.83179 25.4137V22.0022C3.83179 20.9268 4.70664 20.052 5.78195 20.052H10.1271C11.2024 20.052 12.0773 20.9268 12.0773 22.0022V25.4137H12.0773ZM18.4202 34.922H12.6279V32.5818H18.4202V34.922ZM27.3721 34.922H21.5798V32.5818H27.3721V34.922ZM36.3239 34.922H30.5316V32.5818H36.3239V34.922Z" fill="white"/>
        <path d="M31.446 5.68487L26.4466 0.685491C25.5327 -0.228415 24.051 -0.228415 23.137 0.685491L10.7411 13.0814H24.472L31.446 5.68487Z" fill="white"/>
        <path d="M31.3023 13.0814L34.9616 9.20039L33.1016 7.34039L27.6884 13.0814H31.3023Z" fill="white"/>
        <path d="M37.6296 13.0814C38.1323 13.0814 38.6163 13.1621 39.0705 13.3094L36.6171 10.856L34.5187 13.0815H37.6296V13.0814Z" fill="white"/>
    </g>
    <defs>
        <clipPath id="clip0_401_2290">
            <rect width="40" height="40" fill="white"/>
        </clipPath>
    </defs>
</svg>
