<svg width="40" height="40" viewBox="0 0 40 40" fill="none" xmlns="http://www.w3.org/2000/svg">
    <path fill-rule="evenodd" clip-rule="evenodd" d="M35.2333 8.06667V11.8778H32.5444C29.551 11.8807 26.6131 11.0704 24.0444 9.53334L20.6444 7.47778C20.4467 7.35818 20.22 7.29495 19.9889 7.29495C19.7578 7.29495 19.5311 7.35818 19.3333 7.47778L15.9444 9.52223C13.3751 11.0577 10.4376 11.8679 7.44444 11.8667H4.76666V8.06667C4.76665 7.7297 4.89975 7.40637 5.13698 7.16705C5.37421 6.92774 5.69637 6.79183 6.03333 6.7889H7.45555C10.6786 6.78968 13.8406 5.90985 16.6 4.24445L20 2.22223L23.3889 4.25556C26.1501 5.9168 29.3109 6.7963 32.5333 6.80001H33.9667C34.3008 6.80572 34.6197 6.94101 34.856 7.17733C35.0923 7.41364 35.2276 7.73252 35.2333 8.06667V8.06667Z" fill="white"/>
    <path fill-rule="evenodd" clip-rule="evenodd" d="M32.5444 14.4444C29.0913 14.4428 25.7037 13.5018 22.7444 11.7222L20 10.0555L17.2556 11.6889C14.299 13.4786 10.9116 14.4311 7.45555 14.4444H4.76666V17.7778C4.77444 21.635 5.87981 25.4104 7.95359 28.6627C10.0274 31.915 12.9839 34.51 16.4778 36.1444L20 37.7778L23.5 36.1444C26.9988 34.5143 29.9607 31.921 32.0388 28.6681C34.1168 25.4153 35.2249 21.6377 35.2333 17.7778V14.4444H32.5444ZM20.6444 25.5555C20.4085 25.7823 20.0939 25.909 19.7667 25.909C19.4394 25.909 19.1248 25.7823 18.8889 25.5555L15.3333 22L17.1222 20.2111L19.7889 22.8667L24.2333 18.4222L26.0222 20.2111L20.6444 25.5555Z" fill="white"/>
</svg>
