<svg width="50" height="50" viewBox="0 0 50 50" fill="none" xmlns="http://www.w3.org/2000/svg">
    <path d="M24.6104 2.50952C20.7747 2.50952 17.6628 5.62381 17.6628 9.45714C17.6628 12.0238 19.0556 14.2643 21.1271 15.469C22.5913 15.1786 24.1175 15.0262 25.6866 15.0262C26.6509 15.0262 27.6009 15.0833 28.5294 15.1976C30.358 13.9452 31.5604 11.8405 31.5604 9.45952C31.558 5.62381 28.4461 2.50952 24.6104 2.50952ZM25.3913 12.8381V13.4357C25.3913 13.8667 25.0413 14.2167 24.6104 14.2167C24.1794 14.2167 23.8294 13.8667 23.8294 13.4357V12.9024C23.1794 12.7595 22.639 12.4167 22.3056 11.9833C22.0437 11.6405 22.1104 11.15 22.4532 10.8881C22.7961 10.6262 23.2866 10.6929 23.5485 11.0333C23.7342 11.2762 24.0937 11.4095 24.489 11.4095C24.8032 11.4095 25.089 11.3238 25.2937 11.169C25.4152 11.0786 25.5128 10.9643 25.5128 10.8238C25.5128 10.45 25.1056 10.2381 24.6104 10.2381C24.5699 10.2381 24.5294 10.2357 24.489 10.2286C23.1318 10.1238 22.1461 9.15 22.1461 8.08809C22.1461 7.20952 22.8247 6.39047 23.8294 6.07619V5.47857C23.8294 5.04762 24.1794 4.69762 24.6104 4.69762C25.0413 4.69762 25.3913 5.04762 25.3913 5.47857V6.0119C26.0413 6.15476 26.5818 6.49762 26.9152 6.93095C27.1771 7.27381 27.1104 7.76428 26.7675 8.02619C26.4247 8.28809 25.9342 8.22143 25.6723 7.87857C25.4866 7.63571 25.1271 7.50238 24.7318 7.50238C24.4199 7.50238 24.1342 7.58809 23.9294 7.74524C23.808 7.83571 23.7104 7.95 23.7104 8.08809C23.7104 8.22857 23.808 8.34047 23.9294 8.43333C24.1342 8.58809 24.4199 8.67381 24.7318 8.67381C24.7723 8.67381 24.8104 8.67619 24.8485 8.68333C26.2128 8.78333 27.0747 9.74524 27.0747 10.8238C27.0747 11.7048 26.3961 12.5238 25.3913 12.8381ZM46.5723 23.4786L45.008 23.0262C44.3818 20.8024 43.1985 19.3548 41.5604 17.6071L43.6223 13.1452C43.7532 12.8595 43.7009 12.5214 43.489 12.2905C43.2771 12.0571 42.9461 11.9762 42.6509 12.0833L37.1985 14.0357C35.8294 13.2143 34.3294 12.5333 32.7294 12.0238C32.3032 13.3714 31.5509 14.5738 30.5675 15.5405C31.8604 15.8167 33.1032 16.1976 34.2794 16.6738C34.6794 16.8357 34.8723 17.2905 34.7104 17.6905C34.5485 18.0905 34.0937 18.2833 33.6937 18.1214C32.1913 17.5143 30.5771 17.0714 28.8818 16.8238L28.8771 16.8262C27.8509 16.6643 26.7937 16.5929 25.7152 16.5929C24.0199 16.5929 22.4532 16.7738 20.8913 17.119C20.2294 17.2667 19.5818 17.4476 18.9509 17.6548C18.3199 17.8619 17.708 18.0976 17.1128 18.3595C16.7175 18.5333 16.258 18.3548 16.0842 17.9595C15.9104 17.5643 16.089 17.1048 16.4842 16.9309C17.3294 16.5571 18.2104 16.2357 19.1223 15.9667C18.0937 15.0976 17.2747 13.9905 16.7509 12.731C11.5199 14.9571 7.62944 19.0738 6.32944 23.9857C5.90801 23.7476 5.55325 23.4738 5.25325 23.1762C5.94611 22.219 6.63896 21.0952 6.98896 20.0476C7.44373 18.681 7.33182 17.4333 6.36992 16.6024C5.78658 16.0976 5.18658 15.9762 4.63896 16.0857C4.12944 16.1881 3.64135 16.5143 3.25325 17.0381C2.29373 18.3286 1.91992 21.0119 3.27468 23.2024C2.66039 23.9595 2.1723 24.4619 2.1723 24.4619C1.8723 24.7714 1.88182 25.2667 2.19135 25.5667C2.50087 25.8667 2.99611 25.8571 3.29611 25.5476C3.29611 25.5476 3.71754 25.1095 4.28182 24.4238C4.75087 24.8595 5.31992 25.25 6.00325 25.5738C5.90801 26.2357 5.85801 26.9095 5.85801 27.5905C5.85801 32.8833 8.80087 37.6167 13.4199 40.6738V44.3524C13.4199 46.1786 14.9009 47.6595 16.7271 47.6595H18.2032C20.0294 47.6595 21.5104 46.1786 21.5104 44.3524V43.8714C22.8556 44.1119 24.2485 44.2405 25.6794 44.2405C27.3509 44.2405 28.9723 44.0667 30.5199 43.7405V44.0286C30.5199 44.9048 30.8675 45.7476 31.489 46.3667C32.1104 46.9881 32.9509 47.3357 33.8271 47.3357H35.3032C36.1818 47.3357 37.0223 46.9881 37.6413 46.3667C38.2628 45.7452 38.6104 44.9048 38.6104 44.0286V40.2095C41.7223 37.969 43.3604 35.5214 44.2699 32.0667L46.3913 31.6524C47.3509 31.4643 48.0413 30.6238 48.0413 29.6476V25.4429C48.0485 24.5286 47.4461 23.7309 46.5723 23.4786ZM4.31516 21.8024C3.82706 20.6857 3.85563 19.4857 4.17468 18.6071C4.42706 17.9167 4.83182 17.3333 5.34849 17.7786C5.6342 18.0262 5.70801 18.3667 5.68182 18.7429C5.64373 19.2833 5.41277 19.881 5.10563 20.4809C4.87706 20.931 4.60325 21.3786 4.31516 21.8024ZM39.4532 25.781C38.5913 25.781 37.8913 25.0809 37.8913 24.219C37.8913 23.3571 38.5913 22.6571 39.4532 22.6571C40.3152 22.6571 41.0152 23.3571 41.0152 24.219C41.0175 25.0809 40.3175 25.781 39.4532 25.781Z" fill="#3570F2"/>
</svg>
