<svg width="50" height="50" viewBox="0 0 50 50" fill="none" xmlns="http://www.w3.org/2000/svg">
    <g clip-path="url(#clip0_144_6967)">
        <path d="M11.738 0V5.93471C8.39342 6.6163 5.86898 9.58043 5.86898 13.1233C5.86898 17.1685 9.16001 20.4596 13.2052 20.4596C17.2504 20.4596 20.5414 17.1685 20.5414 13.1233C20.5414 9.58052 18.017 6.61639 14.6725 5.93471V0C21.2659 0.732253 26.4104 6.33781 26.4104 13.1232C26.4104 15.8051 25.6107 18.3869 24.0975 20.59C22.812 22.4618 21.0888 23.956 19.0742 24.9551V29.263H14.6725V32.3932C14.6725 34.0112 15.9889 35.3276 17.6069 35.3276H20.7371V30.9259H25.0449C26.044 28.9113 27.5382 27.188 29.41 25.9026C31.613 24.3895 34.195 23.5897 36.8768 23.5897C43.6622 23.5897 49.2677 28.7342 50 35.3276H44.0653C43.3837 31.9831 40.4196 29.4587 36.8767 29.4587C32.8315 29.4587 29.5404 32.7497 29.5404 36.7949C29.5404 40.8401 32.8315 44.1311 36.8767 44.1311C40.4196 44.1311 43.3836 41.6067 44.0653 38.2621H50C49.2677 44.8555 43.6622 50.0001 36.8768 50.0001C34.195 50.0001 31.6131 49.2003 29.41 47.6872C27.5382 46.4017 26.044 44.6785 25.0449 42.6639H20.7371V38.2621H17.6069C14.3708 38.2621 11.738 35.6293 11.738 32.3932V29.263H7.33623V24.9551C5.3215 23.9561 3.59827 22.4618 2.31287 20.59C0.799746 18.387 0 15.8051 0 13.1232C0 6.33781 5.14455 0.732253 11.738 0V0Z" fill="#3570F2"/>
    </g>
    <defs>
        <clipPath id="clip0_144_6967">
            <rect width="50" height="50" fill="white"/>
        </clipPath>
    </defs>
</svg>
