<svg width="50" height="50" viewBox="0 0 50 50" fill="none" xmlns="http://www.w3.org/2000/svg">
    <g clip-path="url(#clip0_149_8278)">
        <path fill-rule="evenodd" clip-rule="evenodd" d="M19 50C29.4934 50 38 41.4934 38 31C38 20.5066 29.4934 12 19 12C8.50659 12 0 20.5066 0 31C0 41.4934 8.50659 50 19 50ZM13.2056 38.5641C14.5589 40.4008 16.4923 41.3191 19.0056 41.3191C21.5189 41.3191 23.4426 40.4008 24.7766 38.5641C26.1299 36.7081 26.8066 34.0788 26.8066 30.6761C26.8066 27.2734 26.1396 24.6828 24.8056 22.9041C23.4716 21.1254 21.5383 20.2361 19.0056 20.2361C16.4923 20.2361 14.5589 21.1254 13.2056 22.9041C11.8716 24.6828 11.2046 27.2831 11.2046 30.7051C11.2046 34.0884 11.8716 36.7081 13.2056 38.5641ZM21.0646 35.5481C20.6199 36.5534 19.9336 37.0561 19.0056 37.0561C18.0776 37.0561 17.3816 36.5534 16.9176 35.5481C16.4729 34.5428 16.2506 32.9188 16.2506 30.6761C16.2506 28.4528 16.4729 26.8674 16.9176 25.9201C17.3816 24.9534 18.0776 24.4701 19.0056 24.4701C19.9336 24.4701 20.6199 24.9534 21.0646 25.9201C21.5286 26.8674 21.7606 28.4624 21.7606 30.7051C21.7606 32.9284 21.5286 34.5428 21.0646 35.5481Z" fill="#3570F2"/>
        <path d="M46.875 0H18.75C17.0281 0 15.625 1.4 15.625 3.125V9.625C16.65 9.47812 17.6875 9.375 18.75 9.375C19.8125 9.375 20.85 9.47812 21.875 9.625V7.8125C21.875 6.95 22.575 6.25 23.4375 6.25H42.1875C43.05 6.25 43.75 6.95 43.75 7.8125V14.0625C43.75 14.925 43.05 15.625 42.1875 15.625H34.0281C38.0938 19.6 40.625 25.1313 40.625 31.25H43.75V34.375H40.625V31.25C40.625 35.8969 39.1562 40.2031 36.675 43.75H46.875C48.6 43.75 50 42.35 50 40.625V3.125C50 1.4 48.6 0 46.875 0ZM43.75 25H40.625V21.875H43.75V25Z" fill="#3570F2"/>
    </g>
    <defs>
        <clipPath id="clip0_149_8278">
            <rect width="50" height="50" fill="white"/>
        </clipPath>
    </defs>
</svg>
