<svg width="50" height="50" viewBox="0 0 50 50" fill="none" xmlns="http://www.w3.org/2000/svg">
    <g clip-path="url(#clip0_401_1201)">
        <path d="M25 8.33331C15.8102 8.33331 8.3333 15.8102 8.3333 25C8.3333 34.1899 15.8102 41.6667 25 41.6667C34.1898 41.6667 41.6667 34.1899 41.6667 25C41.6667 15.8102 34.1898 8.33331 25 8.33331ZM33.5267 14.5589C33.7139 14.3504 33.9783 14.2273 34.2591 14.2161C34.5012 14.1887 34.8125 14.3067 35.0159 14.4999C37.1766 16.5456 38.6455 19.1498 39.2599 22.0307C39.3575 22.4904 39.1357 22.9584 38.7186 23.174C37.6993 23.701 36.4889 23.9563 35.3292 23.9563C33.8176 23.9563 32.3853 23.5229 31.5552 22.6928C29.7893 20.9279 30.5257 17.8874 33.5267 14.5589ZM16.4734 35.6038C16.2862 35.8123 16.0218 35.9364 15.741 35.9477C15.7288 35.9486 15.7145 35.9486 15.7003 35.9486C15.4338 35.9486 15.1774 35.8469 14.9842 35.6638C12.8235 33.6181 11.3546 31.0139 10.7402 28.132C10.6426 27.6723 10.8644 27.2043 11.2814 26.9887C13.6293 25.7772 16.978 26.0029 18.4449 27.4698C20.2088 29.2349 19.4723 32.2754 16.4734 35.6038ZM18.4448 22.6929C17.6147 23.523 16.1824 23.9564 14.6708 23.9564C13.5111 23.9564 12.3026 23.701 11.2813 23.1741C10.8643 22.9585 10.6425 22.4905 10.7401 22.0308C11.3546 19.1499 12.8234 16.5457 14.9841 14.5C15.1875 14.3067 15.4866 14.1867 15.7409 14.2162C16.0217 14.2275 16.2861 14.3505 16.4733 14.559C19.4743 17.8874 20.2107 20.9279 18.4448 22.6929ZM29.4393 38.8906C27.9968 39.3504 26.5034 39.5834 25 39.5834C23.4966 39.5834 22.0031 39.3505 20.5607 38.8906C20.1029 38.7442 19.8039 38.3047 19.8364 37.8256C20.0969 34.077 22.3165 31.25 25 31.25C27.6835 31.25 29.9031 34.077 30.1636 37.8255C30.1961 38.3047 29.8971 38.7442 29.4393 38.8906ZM20.8333 25C20.8333 22.7021 22.703 20.8333 25 20.8333C27.297 20.8333 29.1667 22.702 29.1667 25C29.1667 27.2981 27.297 29.1667 25 29.1667C22.703 29.1667 20.8333 27.298 20.8333 25ZM30.1636 12.2568C29.9031 16.0044 27.6835 18.8314 25 18.8314C22.3165 18.8314 20.0969 16.0044 19.8364 12.2568C19.8039 11.7777 20.1009 11.3383 20.5587 11.1928C23.4436 10.2711 26.5564 10.2711 29.4413 11.1928C29.8991 11.3383 30.1961 11.7777 30.1636 12.2568ZM39.2599 27.9663C38.6454 30.8482 37.1766 33.4524 35.0159 35.4981C34.8227 35.6812 34.5663 35.7829 34.2998 35.7829C34.2855 35.7829 34.2713 35.7829 34.2591 35.7819C33.9783 35.7707 33.7139 35.6477 33.5267 35.4392C30.5258 32.1108 29.7893 29.0692 31.5552 27.3042C33.0221 25.8363 36.3688 25.6135 38.7186 26.8231C39.1357 27.0386 39.3575 27.5066 39.2599 27.9663Z" fill="#3570F2"/>
        <path d="M25 0C11.2142 0 0 11.2152 0 25C0 38.7848 11.2142 50 25 50C38.7858 50 50 38.7848 50 25C50 11.2152 38.7858 0 25 0ZM25 43.75C14.6606 43.75 6.25 35.3384 6.25 25C6.25 14.6616 14.6606 6.25 25 6.25C35.3394 6.25 43.75 14.6616 43.75 25C43.75 35.3384 35.3394 43.75 25 43.75Z" fill="#3570F2"/>
    </g>
    <defs>
        <clipPath id="clip0_401_1201">
            <rect width="50" height="50" fill="white"/>
        </clipPath>
    </defs>
</svg>
