<svg width="50" height="50" viewBox="0 0 50 50" fill="none" xmlns="http://www.w3.org/2000/svg">
    <g clip-path="url(#clip0_144_6932)">
        <path d="M26.5716 28.0338C34.3006 28.0338 40.5885 21.7458 40.5885 14.0169C40.5885 6.28799 34.3006 0 26.5716 0C18.8426 0 12.5547 6.28799 12.5547 14.0169C12.5547 21.7458 18.8427 28.0338 26.5716 28.0338ZM25.1067 7.90693V7.74092C25.1067 6.93193 25.7626 6.27607 26.5716 6.27607C27.3806 6.27607 28.0364 6.93193 28.0364 7.74092V7.84502H28.1406C28.9496 7.84502 29.6055 8.50088 29.6055 9.30986C29.6055 10.1188 28.9496 10.7747 28.1406 10.7747H25.787C25.297 10.7747 24.8983 11.1733 24.8983 11.6635C24.8983 12.1535 25.297 12.5521 25.787 12.5521H27.3562C29.4617 12.5521 31.1746 14.265 31.1746 16.3706C31.1746 18.2437 29.8185 19.8051 28.0365 20.1271V20.2931C28.0365 21.1021 27.3807 21.7579 26.5717 21.7579C25.7627 21.7579 25.1068 21.1021 25.1068 20.2931V20.189H25.0026C24.1937 20.189 23.5378 19.5331 23.5378 18.7241C23.5378 17.9151 24.1937 17.2593 25.0026 17.2593H27.3562C27.8463 17.2593 28.2449 16.8606 28.2449 16.3706C28.2449 15.8805 27.8463 15.4818 27.3562 15.4818H25.7872C23.6817 15.4818 21.9688 13.7689 21.9688 11.6635C21.9688 9.79023 23.325 8.22891 25.1067 7.90693Z" fill="#3570F2"/>
        <path d="M46.0499 9.05116L49.188 7.48212C49.9116 7.1204 50.2049 6.24052 49.8431 5.51689C49.4813 4.79325 48.6016 4.49999 47.8778 4.86171L44.7398 6.43075C44.0161 6.79247 43.7229 7.67235 44.0847 8.39599C44.4479 9.12235 45.3291 9.41132 46.0499 9.05116Z" fill="#3570F2"/>
        <path d="M49.188 20.5518L46.0499 18.9827C45.3267 18.6213 44.4465 18.9143 44.0847 19.6379C43.7229 20.3615 44.0161 21.2414 44.7398 21.6031L47.8778 23.1722C48.6005 23.5333 49.4808 23.2415 49.8431 22.517C50.2049 21.7934 49.9116 20.9135 49.188 20.5518Z" fill="#3570F2"/>
        <path d="M8.39893 6.43079L5.26084 4.86165C4.53711 4.49993 3.65743 4.79319 3.29561 5.51682C2.93379 6.24046 3.22706 7.12034 3.95069 7.48206L7.08877 9.0511C7.80957 9.41136 8.69082 9.12239 9.05401 8.39593C9.41582 7.67229 9.12256 6.79251 8.39893 6.43079Z" fill="#3570F2"/>
        <path d="M7.08877 18.9827L3.95069 20.5518C3.22706 20.9135 2.93379 21.7934 3.29561 22.517C3.65791 23.2415 4.53819 23.5333 5.26084 23.1722L8.39893 21.6031C9.12256 21.2414 9.41582 20.3615 9.05401 19.6379C8.69219 18.9143 7.81202 18.6213 7.08877 18.9827Z" fill="#3570F2"/>
        <path d="M39.6317 32.153L32.547 39.238C31.6766 40.1075 30.5212 40.5859 29.2931 40.5859H23.9769C23.1881 40.5859 22.5094 39.9798 22.4723 39.1919C22.4326 38.3507 23.1029 37.6562 23.9354 37.6562H28.6792C30.4123 37.6562 31.8172 36.2513 31.8172 34.5183C31.8172 32.7853 30.4123 31.3803 28.6792 31.3803H19.1253C14.6814 31.3803 13.2734 35.1236 13.04 36.0873H10.7734V46.862H30.973C32.7945 46.862 34.5075 46.1524 35.7966 44.8639L46.4316 34.2284C46.9883 33.6719 47.022 32.7456 46.4245 32.1497C44.4771 30.2071 41.4542 30.3306 39.6317 32.153Z" fill="#3570F2"/>
        <path d="M6.38027 32.9492H1.46484C0.655859 32.9492 0 33.6051 0 34.4141V48.5352C0 49.3441 0.655859 50 1.46484 50H6.38018C7.18916 50 7.84502 49.3441 7.84502 48.5352V34.4141C7.84512 33.6051 7.18926 32.9492 6.38027 32.9492Z" fill="#3570F2"/>
    </g>
    <defs>
        <clipPath id="clip0_144_6932">
            <rect width="50" height="50" fill="white"/>
        </clipPath>
    </defs>
</svg>
