<svg width="50" height="50" viewBox="0 0 50 50" fill="none" xmlns="http://www.w3.org/2000/svg">
    <path fill-rule="evenodd" clip-rule="evenodd" d="M27.5485 1.81233L30.1107 3.7302C30.8115 4.25471 31.5491 4.52317 32.423 4.5718L35.6186 4.74954C37.532 4.85598 39.086 6.15999 39.5231 8.0259L40.2531 11.142C40.4527 11.9943 40.8452 12.674 41.4834 13.273L43.8171 15.4633C45.2145 16.7747 45.5667 18.7726 44.7021 20.4829L43.2583 23.3393C42.8635 24.1204 42.7271 24.8935 42.8311 25.7625L43.2109 28.9405C43.4384 30.8433 42.424 32.6001 40.6624 33.3546L37.7203 34.6146C36.9156 34.9592 36.3144 35.4637 35.8354 36.1963L34.0836 38.8748C33.0348 40.4786 31.1284 41.1725 29.2939 40.6181L26.2303 39.6922C25.3924 39.439 24.6075 39.439 23.7696 39.6922L20.706 40.6181C18.8715 41.1725 16.9652 40.4786 15.9163 38.8748L14.1646 36.1963C13.6855 35.4637 13.0842 34.9592 12.2795 34.6147L9.3376 33.3545C7.57598 32.6001 6.56162 30.8432 6.78906 28.9404L7.16895 25.7624C7.27276 24.8933 7.13652 24.1203 6.7416 23.3392L5.29775 20.4828C4.4332 18.7726 4.78555 16.7747 6.18281 15.4632L8.5165 13.2729C9.15469 12.6739 9.54717 11.9942 9.74678 11.1419L10.4768 8.02581C10.9139 6.15989 12.4679 4.85588 14.3813 4.74944L17.5769 4.5717C18.4509 4.52307 19.1885 4.25461 19.8892 3.7301L22.4514 1.81223C23.9856 0.663892 26.0144 0.663892 27.5485 1.81233ZM23.3656 21.9765L20.5851 19.1959C19.8644 18.4753 18.6954 18.4753 17.9747 19.1959C17.2541 19.9166 17.2541 21.0856 17.9747 21.8062L22.0645 25.8958C22.7851 26.6164 23.9541 26.6164 24.6747 25.8958C27.1398 23.4307 29.577 20.9379 32.0306 18.4615C32.746 17.7394 32.7438 16.5741 32.0226 15.857C31.3013 15.1396 30.1327 15.1416 29.4165 15.8651L23.3656 21.9765ZM25 7.02463C21.1744 7.02463 17.7108 8.57532 15.2036 11.0824C12.6965 13.5896 11.1458 17.0532 11.1458 20.8787C11.1458 24.7043 12.6966 28.168 15.2036 30.675C17.7107 33.1822 21.1743 34.7328 25 34.7328C28.8256 34.7328 32.2893 33.1821 34.7963 30.675C37.3034 28.168 38.8541 24.7043 38.8541 20.8787C38.8541 17.0531 37.3034 13.5896 34.7963 11.0824C32.2893 8.57541 28.8257 7.02463 25 7.02463ZM33.6916 12.1872C31.4673 9.96291 28.3943 8.58713 25 8.58713C21.6057 8.58713 18.5327 9.96291 16.3084 12.1872C14.0841 14.4115 12.7083 17.4845 12.7083 20.8788C12.7083 24.2732 14.0841 27.3461 16.3084 29.5704C18.5327 31.7948 21.6057 33.1705 25 33.1705C28.3943 33.1705 31.4673 31.7948 33.6916 29.5704C35.9159 27.3461 37.2917 24.2732 37.2917 20.8788C37.2917 17.4845 35.9159 14.4115 33.6916 12.1872ZM30.2059 42.3573L33.2424 48.8796C33.2896 48.9811 33.3829 49.0436 33.4947 49.0487C33.6065 49.0537 33.7051 49 33.7613 48.9031L36.0261 45.0057L40.4666 45.7816C40.5769 45.8008 40.6814 45.7601 40.7495 45.6712C40.8176 45.5823 40.8299 45.4708 40.7826 45.3694L37.0069 37.2595L35.3913 39.7299C34.2252 41.513 32.2505 42.4782 30.2059 42.3573ZM19.9114 42.3492C17.8253 42.5147 15.7972 41.547 14.6088 39.7299L13.0594 37.3608L9.33086 45.3694C9.28359 45.4708 9.2958 45.5824 9.36397 45.6712C9.43203 45.7601 9.53662 45.8008 9.64688 45.7816L14.0874 45.0057L16.3522 48.9031C16.4085 48.9999 16.507 49.0536 16.6188 49.0486C16.7307 49.0435 16.8239 48.9811 16.8712 48.8795L19.9114 42.3492Z" fill="#3570F2"/>
</svg>
