<svg width="50" height="50" viewBox="0 0 50 50" fill="none" xmlns="http://www.w3.org/2000/svg">
    <g clip-path="url(#clip0_401_3600)">
        <path d="M45.5281 6.55518L41.3614 2.38848C40.9545 1.98154 40.2953 1.98154 39.8885 2.38848C39.4815 2.79541 39.4815 3.45459 39.8885 3.86143L43.3186 7.2916L39.8885 10.7218C39.6932 10.9171 39.5833 11.1815 39.5833 11.4583V14.5833C39.5833 16.8813 41.452 18.75 43.75 18.75V36.4583C43.75 37.033 43.2831 37.5 42.7083 37.5C42.1336 37.5 41.6666 37.0331 41.6666 36.4583V34.375C41.6666 32.6518 40.2648 31.25 38.5416 31.25H37.5V4.1667C37.5 1.86865 35.6313 0 33.3333 0H12.5C10.202 0 8.33329 1.86865 8.33329 4.1667V41.6667C6.03535 41.6667 4.1666 43.5354 4.1666 45.8334V48.9584C4.1666 49.5342 4.63251 50.0001 5.20829 50.0001H40.625C41.2008 50.0001 41.6667 49.5342 41.6667 48.9584V45.8334C41.6667 43.5354 39.798 41.6667 37.5 41.6667V33.3334H38.5417C39.1164 33.3334 39.5834 33.8003 39.5834 34.3751V36.4584C39.5834 38.1816 40.9852 39.5834 42.7084 39.5834C44.4316 39.5834 45.8334 38.1816 45.8334 36.4584V7.2917C45.8333 7.01494 45.7234 6.75049 45.5281 6.55518ZM33.3333 17.7276C33.3333 18.3034 32.8674 18.7693 32.2916 18.7693H13.5416C12.9658 18.7693 12.4999 18.3034 12.4999 17.7276V5.2083C12.4999 4.63252 12.9658 4.1666 13.5416 4.1666H32.2916C32.8674 4.1666 33.3333 4.63252 33.3333 5.2083V17.7276Z" fill="#3570F2"/>
    </g>
    <defs>
        <clipPath id="clip0_401_3600">
            <rect width="50" height="50" fill="white"/>
        </clipPath>
    </defs>
</svg>
