<svg width="50" height="50" viewBox="0 0 50 50" fill="none" xmlns="http://www.w3.org/2000/svg">
    <g clip-path="url(#clip0_144_6943)">
        <path d="M32.3243 6.58204V2.92969H33.7891C34.5988 2.92969 35.254 2.27452 35.254 1.46485C35.254 0.655177 34.5988 0 33.7891 0C27.835 0 28.0244 0 22.0703 0C21.2607 0 20.6055 0.655177 20.6055 1.46485C20.6055 2.27452 21.2607 2.92969 22.0703 2.92969H23.5352V6.58165C16.7822 8.50099 11.8164 14.7104 11.8164 22.0704C11.8164 30.9552 19.0448 38.1837 27.9297 38.1837C28.8667 38.1837 29.7922 38.0753 30.7083 37.9151C29.9008 37.0087 29.3946 35.8278 29.3946 34.5216C29.3946 33.6362 29.6424 32.8174 30.0403 32.0911C29.3513 32.2352 28.6488 32.3243 27.9297 32.3243C22.2763 32.3243 17.6758 27.7238 17.6758 22.0704C17.6758 16.4169 22.2763 11.8164 27.9297 11.8164C30.854 11.8164 33.5529 13.084 35.4573 15.1499C36.0706 14.8899 36.7444 14.7461 37.4512 14.7461H42.2141C40.1756 10.792 36.5875 7.81496 32.3243 6.58204Z" fill="#3570F2"/>
        <path d="M27.9297 14.7461C27.12 14.7461 26.4649 15.4013 26.4649 16.2109V20.6055H22.0703C21.2606 20.6055 20.6055 21.2607 20.6055 22.0703C20.6055 22.88 21.2606 23.5352 22.0703 23.5352H27.9297C28.7394 23.5352 29.3945 22.88 29.3945 22.0703V16.2109C29.3945 15.4013 28.7394 14.7461 27.9297 14.7461Z" fill="#3570F2"/>
        <path d="M47.8028 17.6758H37.4512C36.2377 17.6758 35.2539 18.6595 35.2539 19.8731C35.2539 21.0866 36.2377 22.0704 37.4512 22.0704H47.8028C49.0162 22.0704 50 21.0866 50 19.8731C50 18.6595 49.0162 17.6758 47.8028 17.6758Z" fill="#3570F2"/>
        <path d="M44.7754 25.0001H34.5215C33.308 25.0001 32.3242 25.9838 32.3242 27.1973C32.3242 28.4108 33.308 29.3946 34.5215 29.3946H44.7754C45.9889 29.3946 46.9727 28.4108 46.9727 27.1973C46.9727 25.9838 45.9889 25.0001 44.7754 25.0001Z" fill="#3570F2"/>
        <path d="M41.8457 32.3243H34.5215C33.308 32.3243 32.3242 33.308 32.3242 34.5215C32.3242 35.735 33.308 36.7188 34.5215 36.7188H41.8457C43.0592 36.7188 44.043 35.735 44.043 34.5215C44.043 33.308 43.0592 32.3243 41.8457 32.3243Z" fill="#3570F2"/>
        <path d="M38.916 39.6485H34.5215C33.308 39.6485 32.3242 40.6322 32.3242 41.8458C32.3242 43.0592 33.308 44.043 34.5215 44.043H38.916C40.1295 44.043 41.1133 43.0592 41.1133 41.8458C41.1133 40.6322 40.1295 39.6485 38.916 39.6485Z" fill="#3570F2"/>
        <path d="M29.3946 41.8457C29.3946 41.5573 29.434 41.279 29.4799 41.0035C28.9636 41.0456 28.4502 41.1133 27.9297 41.1133C17.4296 41.1133 8.88666 32.5704 8.88666 22.0703C8.88666 15.1594 12.6001 9.11436 18.124 5.77695C18.0502 5.50458 17.9999 5.12929 17.9103 4.86083L17.6013 3.93241C17.4354 3.43749 17.0206 3.06698 16.5098 2.96112C16.002 2.85243 15.4712 3.02694 15.1222 3.41464L7.08559 12.4416C6.35756 13.2512 5.95697 14.2955 5.95697 15.3827V28.4319C5.95697 29.6063 5.4015 30.7092 4.57181 31.5404L0.429127 35.6832C-0.143042 36.2553 -0.143042 37.1824 0.429127 37.7545L12.2456 49.5709C12.8177 50.143 13.7448 50.143 14.3169 49.5709L18.4597 45.3304C19.2909 44.5008 20.3938 44.0429 21.5682 44.0429H29.9089C29.5888 43.3744 29.3946 42.6349 29.3946 41.8457Z" fill="#3570F2"/>
    </g>
    <defs>
        <clipPath id="clip0_144_6943">
            <rect width="50" height="50" fill="white"/>
        </clipPath>
    </defs>
</svg>
