<svg width="50" height="50" viewBox="0 0 50 50" fill="none" xmlns="http://www.w3.org/2000/svg">
    <path fill-rule="evenodd" clip-rule="evenodd" d="M44.0404 10.0833V14.8472H40.6793C36.9375 14.8509 33.2651 13.838 30.0543 11.9167L25.8043 9.34722C25.5571 9.19771 25.2737 9.11868 24.9848 9.11868C24.6959 9.11868 24.4125 9.19771 24.1654 9.34722L19.9293 11.9028C16.7176 13.8221 13.0457 14.8349 9.30425 14.8333H5.95703V10.0833C5.95702 9.66212 6.12339 9.25795 6.41993 8.95881C6.71647 8.65967 7.11917 8.48978 7.54036 8.48611H9.31814C13.3469 8.48709 17.2994 7.3873 20.7487 5.30556L24.9987 2.77778L29.2348 5.31945C32.6863 7.396 36.6373 8.49537 40.6654 8.5H42.457C42.8747 8.50714 43.2733 8.67625 43.5687 8.97165C43.8641 9.26705 44.0332 9.66564 44.0404 10.0833Z" fill="#3570F2"/>
    <path fill-rule="evenodd" clip-rule="evenodd" d="M40.6793 18.0556C36.3628 18.0535 32.1283 16.8773 28.4293 14.6528L24.9987 12.5694L21.5681 14.6111C17.8724 16.8483 13.6382 18.0389 9.31814 18.0556H5.95703V22.2222C5.96676 27.0438 7.34846 31.763 9.94069 35.8284C12.5329 39.8938 16.2286 43.1375 20.5959 45.1806L24.9987 47.2222L29.3737 45.1806C33.7472 43.1429 37.4496 39.9012 40.0471 35.8352C42.6447 31.7691 44.0298 27.0471 44.0404 22.2222V18.0556H40.6793ZM25.8043 31.9444C25.5093 32.2279 25.1161 32.3863 24.707 32.3863C24.2979 32.3863 23.9047 32.2279 23.6098 31.9444L19.1654 27.5L21.4015 25.2639L24.7348 28.5833L30.2904 23.0278L32.5265 25.2639L25.8043 31.9444Z" fill="#3570F2"/>
</svg>
