<svg width="50" height="50" viewBox="0 0 50 50" fill="none" xmlns="http://www.w3.org/2000/svg">
    <g clip-path="url(#clip0_144_6922)">
        <path d="M33.0219 7.00729L33.4531 8.15937L33.8844 7.00729C34.0645 6.52617 34.3457 6.08928 34.709 5.72611C35.0724 5.36294 35.5094 5.08194 35.9906 4.90208L37.1365 4.47083L35.9906 4.03958C35.5098 3.85924 35.0731 3.57793 34.7102 3.2146C34.3472 2.85128 34.0663 2.41437 33.8865 1.93333L33.4552 0.78125L33.0219 1.93333C32.842 2.41437 32.5611 2.85128 32.1982 3.2146C31.8352 3.57793 31.3986 3.85924 30.9177 4.03958L29.7656 4.47083L30.9177 4.90208C31.3985 5.08219 31.8352 5.3633 32.1981 5.72646C32.5611 6.08962 32.842 6.52638 33.0219 7.00729Z" fill="#3570F2"/>
        <path d="M41.018 11.2437L41.344 12.1166L41.6669 11.2437C41.8033 10.8788 42.0164 10.5473 42.2919 10.2719C42.5674 9.99637 42.8989 9.78323 43.2638 9.64685L44.1367 9.31976L43.2638 8.99268C42.8989 8.8563 42.5674 8.64316 42.2919 8.36767C42.0164 8.09218 41.8033 7.76076 41.6669 7.3958L41.3398 6.52289L41.0138 7.3958C40.8771 7.76059 40.6639 8.09185 40.3884 8.36731C40.113 8.64276 39.7817 8.856 39.4169 8.99268L38.543 9.31976L39.4169 9.64685C39.7825 9.78302 40.1146 9.99604 40.3908 10.2715C40.667 10.547 40.8808 10.8785 41.018 11.2437Z" fill="#3570F2"/>
        <path d="M45.9005 6.39374L46.2266 7.2677L46.5536 6.39374C46.6903 6.02896 46.9036 5.69769 47.179 5.42224C47.4545 5.14679 47.7857 4.93355 48.1505 4.79687L49.0234 4.47082L48.1505 4.14374C47.7856 4.00736 47.4541 3.79422 47.1787 3.51873C46.9032 3.24324 46.69 2.91182 46.5536 2.54687L46.2266 1.67395L45.9005 2.54687C45.7638 2.91165 45.5506 3.24292 45.2752 3.51837C44.9997 3.79382 44.6684 4.00706 44.3036 4.14374L43.4297 4.47082L44.3036 4.79687C44.6682 4.9339 44.9993 5.14727 45.2747 5.42267C45.5501 5.69808 45.7635 6.02916 45.9005 6.39374Z" fill="#3570F2"/>
        <path d="M41.543 45.9927V48.1625C41.543 48.3017 41.5705 48.4394 41.6239 48.5679C41.6773 48.6964 41.7555 48.8131 41.8542 48.9112C41.9528 49.0094 42.0699 49.0871 42.1986 49.1399C42.3274 49.1926 42.4653 49.2195 42.6044 49.2188H46.6669C46.9471 49.2188 47.2157 49.1075 47.4138 48.9094C47.6119 48.7113 47.7232 48.4427 47.7232 48.1625V43.9802C47.0526 44.654 46.2492 45.1808 45.364 45.5273C44.4788 45.8738 43.5313 46.0323 42.5815 45.9927H41.543Z" fill="#3570F2"/>
        <path d="M2.22266 43.9188V48.1625C2.22266 48.4426 2.33394 48.7113 2.53202 48.9094C2.73011 49.1075 2.99877 49.2188 3.27891 49.2188H7.34141C7.62154 49.2188 7.8902 49.1075 8.08829 48.9094C8.28637 48.7113 8.39766 48.4426 8.39766 48.1625V45.9927H7.4237C6.45943 46.0343 5.49729 45.871 4.60078 45.5135C3.70426 45.156 2.89373 44.6125 2.22266 43.9188Z" fill="#3570F2"/>
        <path d="M2.25 39.6875C2.25 42.6813 4.33333 44.4261 7.42083 44.4261H42.5781C45.6615 44.4261 47.749 42.6813 47.749 39.6875V38.8229H2.25V39.6875Z" fill="#3570F2"/>
        <path d="M48.2299 20.4167L45.6258 19.9646C45.4178 19.9283 45.2036 19.9632 45.018 20.0638C44.8323 20.1644 44.6861 20.3247 44.6029 20.5187L43.7924 22.351L43.4633 21.849L41.18 16.4583C40.8117 15.5838 40.2269 14.8175 39.4806 14.2314C38.7343 13.6453 37.8512 13.2588 36.9143 13.1083C32.9717 12.5097 28.9885 12.2189 25.0008 12.2385C21.0133 12.2199 17.0304 12.5118 13.0883 13.1115C12.1505 13.2612 11.2663 13.6474 10.5191 14.2335C9.7719 14.8196 9.18628 15.5863 8.81745 16.4615L6.53932 21.8437L6.21537 22.3385L5.39974 20.5135C5.31655 20.3195 5.17029 20.1592 4.98464 20.0586C4.79899 19.958 4.58482 19.9231 4.37682 19.9594L1.77162 20.4167C1.53095 20.4556 1.31203 20.579 1.15415 20.7647C0.996266 20.9505 0.90976 21.1864 0.910158 21.4302V21.9417C0.910207 22.1764 0.990496 22.4041 1.13771 22.5869C1.28492 22.7697 1.49021 22.8967 1.71953 22.9469L5.2862 23.7625L3.57787 26.3667C2.71331 27.6852 2.25278 29.2275 2.25287 30.8042V37.2625H47.7508V30.8042C47.7505 29.2274 47.2896 27.6851 46.4247 26.3667L44.7102 23.75L48.2831 22.9448C48.5124 22.8947 48.7177 22.7676 48.8649 22.5848C49.0121 22.402 49.0924 22.1743 49.0924 21.9396V21.4281C49.0923 21.1845 49.0054 20.949 48.8474 20.7636C48.6893 20.5783 48.4704 20.4553 48.2299 20.4167ZM10.2602 17.0719C10.5233 16.4399 10.9441 15.8858 11.4822 15.4626C12.0203 15.0393 12.6579 14.761 13.3341 14.6542C17.1951 14.0682 21.0957 13.7829 25.0008 13.801C28.9059 13.7829 32.8065 14.0682 36.6674 14.6542C37.3432 14.7613 37.9802 15.0397 38.5179 15.4627C39.0556 15.8857 39.4761 16.4393 39.7393 17.0708L41.4945 21.2104H8.50495L10.2602 17.0719ZM6.94662 32.176C6.6404 32.1314 6.35464 31.9958 6.12638 31.7869C5.89812 31.5779 5.73787 31.3053 5.66641 31.0042C5.57224 30.653 5.53531 30.289 5.55703 29.926C5.64141 28.9885 5.9362 28.5271 6.53203 28.5271C6.53203 28.5271 10.6174 28.7812 11.1695 28.951C11.7216 29.1208 13.8404 33.149 13.8404 33.149L6.94662 32.176ZM33.1174 33.7385L24.9508 34.2052L16.8841 33.75L14.8268 29.3865C14.8268 29.3865 22.0737 30.0177 24.9997 30.0177C27.9258 30.0177 35.1747 29.3865 35.1747 29.3865L33.1174 33.7385ZM44.3341 31.0083C44.2626 31.3094 44.1024 31.5821 43.8741 31.791C43.6459 32 43.3601 32.1356 43.0539 32.1802L36.1602 33.1531C36.1602 33.1531 38.2799 29.125 38.832 28.9552C39.3841 28.7854 43.4685 28.5312 43.4685 28.5312C44.0654 28.5312 44.3591 28.9969 44.4435 29.9302C44.4652 30.2931 44.4283 30.6572 44.3341 31.0083Z" fill="#3570F2"/>
    </g>
    <defs>
        <clipPath id="clip0_144_6922">
            <rect width="50" height="50" fill="white"/>
        </clipPath>
    </defs>
</svg>
