<svg width="80" height="80" viewBox="0 0 80 80" fill="none" xmlns="http://www.w3.org/2000/svg">
    <g clip-path="url(#clip0_133_7771)">
        <path d="M40 80C62.0914 80 80 62.0914 80 40C80 17.9086 62.0914 0 40 0C17.9086 0 0 17.9086 0 40C0 62.0914 17.9086 80 40 80Z" fill="#3570F2"/>
        <path d="M29.7773 58.0443L50.3452 78.6121C67.3799 74.0695 79.9982 58.549 79.9982 40.0001C79.9982 39.6215 79.9982 39.243 79.9982 38.8644L63.8467 23.9749L29.7773 58.0443Z" fill="#2E61D0"/>
        <path d="M41.0085 48.959C42.775 50.7256 42.775 53.754 41.0085 55.5205L37.3492 59.1798C35.5826 60.9464 32.5542 60.9464 30.7877 59.1798L14.7624 43.0284C12.9959 41.2618 12.9959 38.2335 14.7624 36.4669L18.4217 32.8076C20.1883 31.041 23.2167 31.041 24.9832 32.8076L41.0085 48.959Z" fill="white"/>
        <path d="M55.0149 21.0725C56.7814 19.3059 59.8098 19.3059 61.5764 21.0725L65.2357 24.7318C67.0022 26.4983 67.0022 29.5267 65.2357 31.2933L37.4754 58.9274C35.7089 60.6939 32.6805 60.6939 30.9139 58.9274L27.2546 55.2681C25.488 53.5015 25.488 50.4731 27.2546 48.7065L55.0149 21.0725Z" fill="white"/>
    </g>
    <defs>
        <clipPath id="clip0_133_7771">
            <rect width="80" height="80" fill="white"/>
        </clipPath>
    </defs>
</svg>
