<svg width="360" height="305" viewBox="0 0 360 305" fill="none" xmlns="http://www.w3.org/2000/svg">
    <path d="M247 57.5526C232.333 49.0847 232.333 27.9152 247 19.4474L312.25 -18.2247C326.917 -26.6925 345.25 -16.1077 345.25 0.827902L345.25 76.1721C345.25 93.1077 326.917 103.692 312.25 95.2247L247 57.5526Z" fill="#2E61D0"/>
    <path d="M6 323.392C-2 318.774 -2 307.226 6 302.608L42 281.823C50 277.204 60 282.978 60 292.215L60 333.785C60 343.022 50 348.796 42 344.177L6 323.392Z" fill="#2E61D0"/>
    <path d="M373.985 84.1689C380.658 80.3161 380.658 70.6839 373.985 66.8311L329.765 41.3007C323.092 37.4478 314.75 42.2639 314.75 49.9696L314.75 101.03C314.75 108.736 323.092 113.552 329.765 109.699L373.985 84.1689Z" fill="#4F86FF"/>
    <path d="M20.985 284.169C27.6583 280.316 27.6583 270.684 20.985 266.831L-0.734992 254.291C-7.40832 250.438 -15.75 255.254 -15.75 262.96L-15.75 288.04C-15.75 295.746 -7.40833 300.562 -0.735 296.709L20.985 284.169Z" fill="#4F86FF"/>
</svg>
