<svg width="40" height="40" viewBox="0 0 40 40" fill="none" xmlns="http://www.w3.org/2000/svg">
    <g clip-path="url(#clip0_45_5636)">
        <path d="M26.6615 6.64167H30.3132V0.281667C29.6832 0.195 27.5165 0 24.9932 0C19.7282 0 16.1215 3.31167 16.1215 9.39833V15H10.3115V22.11H16.1215V40H23.2449V22.1117H28.8199L29.7049 15.0017H23.2432V10.1033C23.2449 8.04833 23.7982 6.64167 26.6615 6.64167V6.64167Z" fill="white"/>
        <g clip-path="url(#clip1_45_5636)">
            <path d="M172.644 84.288L172.388 86.4213C109.839 55.2462 103.296 51.0933 95.2181 63.2107C89.6146 71.6018 73.2874 90.6311 68.3666 96.2631C63.3888 101.81 58.4394 102.236 49.9914 98.3965C41.4581 94.1298 14.0661 85.1698 -18.3606 56.1564C-43.6192 33.5431 -60.5721 5.80977 -65.5783 -2.72356C-73.9126 -17.1165 -56.4761 -19.1644 -40.6041 -49.2018C-37.7597 -55.1751 -39.2103 -59.8684 -41.3152 -64.1067C-43.4486 -68.3733 -60.4299 -110.187 -67.541 -126.855C-74.3677 -143.467 -81.3934 -141.362 -86.6557 -141.362C-103.04 -142.784 -115.015 -142.556 -125.568 -131.577C-171.477 -81.1165 -159.9 -29.0631 -120.618 26.2898C-43.4201 127.324 -2.28943 145.927 72.9177 171.755C93.227 178.212 111.744 177.301 126.393 175.196C142.72 172.608 176.655 154.688 183.737 134.635C190.991 114.581 190.991 97.9413 188.857 94.1013C186.752 90.2613 181.177 88.128 172.644 84.288V84.288Z" fill="white"/>
            <path d="M258.347 -224.562C39.6377 -435.989 -322.318 -282.645 -322.46 15.6231C-322.46 75.2427 -306.844 133.383 -277.091 184.725L-325.333 360L-145.137 313.01C79.7159 434.468 357.22 273.188 357.334 15.7938C357.334 -74.5457 322.063 -159.566 257.92 -223.452L258.347 -224.562ZM300.502 14.8552C300.331 231.972 61.995 367.566 -126.506 256.747L-136.746 250.66L-243.413 278.393L-214.826 174.713L-221.625 164.046C-338.929 -22.6915 -204.16 -266.745 18.0483 -266.745C93.5399 -266.745 164.395 -237.305 217.757 -183.972C271.09 -131.093 300.502 -60.2382 300.502 14.8552V14.8552Z" fill="white"/>
        </g>
    </g>
    <defs>
        <clipPath id="clip0_45_5636">
            <rect width="40" height="40" fill="white"/>
        </clipPath>
        <clipPath id="clip1_45_5636">
            <rect width="682.667" height="682.667" fill="white" transform="translate(-325.333 -322.667)"/>
        </clipPath>
    </defs>
</svg>
