<svg width="40" height="40" viewBox="0 0 40 40" fill="none" xmlns="http://www.w3.org/2000/svg">
    <g clip-path="url(#clip0_45_5632)">
        <path d="M20.0065 9.72998C14.3348 9.72998 9.74316 14.3266 9.74316 19.9933C9.74316 25.665 14.3398 30.2566 20.0065 30.2566C25.6782 30.2566 30.2698 25.66 30.2698 19.9933C30.2698 14.3216 25.6732 9.72998 20.0065 9.72998V9.72998ZM20.0065 26.655C16.3248 26.655 13.3448 23.6733 13.3448 19.9933C13.3448 16.3133 16.3265 13.3316 20.0065 13.3316C23.6865 13.3316 26.6682 16.3133 26.6682 19.9933C26.6698 23.6733 23.6882 26.655 20.0065 26.655V26.655Z" fill="white"/>
        <path d="M28.2461 0.127353C24.5661 -0.0443133 15.4511 -0.0359799 11.7677 0.127353C8.53107 0.27902 5.67607 1.06069 3.3744 3.36235C-0.472265 7.20902 0.0194022 12.3924 0.0194022 19.994C0.0194022 27.774 -0.413931 32.8374 3.3744 36.6257C7.23607 40.4857 12.4944 39.9807 20.0061 39.9807C27.7127 39.9807 30.3727 39.9857 33.0977 38.9307C36.8027 37.4924 39.5994 34.1807 39.8727 28.2324C40.0461 24.5507 40.0361 15.4374 39.8727 11.754C39.5427 4.73236 35.7744 0.47402 28.2461 0.127353V0.127353ZM34.0711 34.0807C31.5494 36.6024 28.0511 36.3774 19.9577 36.3774C11.6244 36.3774 8.28274 36.5007 5.8444 34.0557C3.03607 31.2607 3.5444 26.7724 3.5444 19.9674C3.5444 10.759 2.5994 4.12735 11.8411 3.65402C13.9644 3.57902 14.5894 3.55402 19.9344 3.55402L20.0094 3.60402C28.8911 3.60402 35.8594 2.67402 36.2777 11.914C36.3727 14.0224 36.3944 14.6557 36.3944 19.9924C36.3927 28.229 36.5494 31.5907 34.0711 34.0807V34.0807Z" fill="white"/>
        <path d="M30.6767 11.7233C32.0012 11.7233 33.075 10.6495 33.075 9.32497C33.075 8.00041 32.0012 6.92664 30.6767 6.92664C29.3521 6.92664 28.2783 8.00041 28.2783 9.32497C28.2783 10.6495 29.3521 11.7233 30.6767 11.7233Z" fill="white"/>
    </g>
    <defs>
        <clipPath id="clip0_45_5632">
            <rect width="40" height="40" fill="white"/>
        </clipPath>
    </defs>
</svg>
