<svg width="170" height="49" viewBox="0 0 170 49" fill="none" xmlns="http://www.w3.org/2000/svg">
    <g clip-path="url(#clip0_332_9184)">
        <path fill-rule="evenodd" clip-rule="evenodd" d="M134.564 38.1622L0.86147 37.9893L-0.574341 39.8339L134.564 39.7763V38.1622Z" fill="#245CA9"/>
        <path fill-rule="evenodd" clip-rule="evenodd" d="M47.0946 8.18579H65.875L36.8142 49.0576H18.4932L47.0946 8.18579Z" fill="#FAD341"/>
        <path fill-rule="evenodd" clip-rule="evenodd" d="M69.7804 8.18579H88.5034L59.5 49.0576H41.1216L69.7804 8.18579Z" fill="#EAF0FC"/>
        <path fill-rule="evenodd" clip-rule="evenodd" d="M92.983 8.18579H111.706L82.7027 49.0576H64.3243L92.983 8.18579Z" fill="#EAF0FC"/>
        <path fill-rule="evenodd" clip-rule="evenodd" d="M27.2804 0.172852H35.7229L30.4392 7.7246H21.9391L27.2804 0.172852Z" fill="#FAD341"/>
        <path fill-rule="evenodd" clip-rule="evenodd" d="M23.2027 17.9857L30.4392 7.72461H42.902L35.8378 17.8705L23.2027 17.9857Z" fill="#E0ECFF"/>
        <path d="M71.3885 12.2788H85.3446C86.723 12.2788 87.8716 12.74 88.8479 13.72C89.8243 14.7 90.2837 15.8529 90.2837 17.1788V36.087H85.1148V28.42H71.6757V36.087H66.5642V17.1788C66.5642 15.7953 67.0236 14.6423 68 13.72C68.8615 12.74 70.0101 12.2788 71.3885 12.2788ZM71.6182 23.2894H85.0575V17.467H71.6182V23.2894ZM99.0134 12.2788V30.8988H112.453V12.2788H117.622V31.187C117.622 32.5129 117.162 33.6658 116.186 34.6458C115.209 35.6258 114.061 36.087 112.74 36.087H98.7838C97.4054 36.087 96.2567 35.6258 95.3378 34.6458C94.4189 33.7235 93.902 32.5129 93.902 31.187V12.2788H99.0134ZM120.091 12.2788H143.811V17.4093H134.507V36.0294H129.395V17.4093H120.091V12.2788ZM151.047 12.2788H165.003C166.324 12.2788 167.473 12.74 168.449 13.72C169.426 14.7 169.885 15.8529 169.885 17.1788V31.187C169.885 32.5129 169.426 33.6658 168.449 34.6458C167.473 35.6258 166.324 36.087 165.003 36.087H151.047C149.669 36.087 148.52 35.6258 147.601 34.6458C146.682 33.7235 146.166 32.5129 146.166 31.187V17.1788C146.166 15.7953 146.625 14.6423 147.601 13.72C148.578 12.74 149.726 12.2788 151.047 12.2788ZM151.277 17.467V30.9564H164.716V17.467H151.277Z" fill="#245CA9"/>
        <path d="M134.507 38.2776H142.03V39.8917H139.101V45.8293H137.493V39.8917H134.564V38.2776H134.507ZM144.328 38.2776H148.75C149.209 38.2776 149.554 38.4505 149.841 38.7387C150.128 39.027 150.301 39.4305 150.301 39.834V45.8293H148.635V43.4082H144.385V45.8293H142.777V39.834C142.777 39.3729 142.949 39.027 143.236 38.7387C143.581 38.4505 143.926 38.2776 144.328 38.2776ZM144.443 41.7364H148.692V39.8917H144.443V41.7364ZM151.507 45.8293V38.2776H153.115V44.2152H159.03V45.8293H151.507ZM167.128 39.834V40.5258H165.463V39.8917H161.213V41.2176H165.578C165.98 41.2176 166.382 41.3905 166.669 41.6788C166.956 41.967 167.128 42.3705 167.128 42.774V44.2729C167.128 44.6764 166.956 45.0799 166.669 45.3681C166.382 45.6564 165.98 45.8293 165.578 45.8293H161.155C160.753 45.8293 160.351 45.6564 160.064 45.3681C159.777 45.0799 159.605 44.6764 159.605 44.2729V43.5811H161.213V44.2152H165.463V42.8894H161.155C160.753 42.8894 160.351 42.7164 160.064 42.4281C159.777 42.1399 159.605 41.7364 159.605 41.3328V39.834C159.605 39.3729 159.777 39.027 160.064 38.7387C160.351 38.4505 160.753 38.2776 161.155 38.2776H165.578C165.98 38.2776 166.382 38.4505 166.669 38.7387C166.956 39.027 167.128 39.4305 167.128 39.834ZM168.22 45.8293V38.2776H169.828V45.8293H168.22Z" fill="#FAD341"/>
    </g>
    <defs>
        <clipPath id="clip0_332_9184">
            <rect width="170" height="49" fill="white"/>
        </clipPath>
    </defs>
</svg>
