<svg width="360" height="250" viewBox="0 0 360 250" fill="none" xmlns="http://www.w3.org/2000/svg">
    <path d="M99.3911 51.6347C101.924 50.1725 101.924 46.5167 99.3911 45.0544L73.6624 30.2C71.1297 28.7377 67.9637 30.5655 67.9637 33.4901L67.9637 63.1991C67.9637 66.1236 71.1297 67.9515 73.6624 66.4892L99.3911 51.6347Z" fill="#2E61D0"/>
    <path d="M-37.4404 118.577C-42.3584 115.738 -42.3584 108.639 -37.4404 105.8L27.5189 68.2954C32.4369 65.4561 38.5844 69.0053 38.5844 74.6841L38.5844 149.693C38.5844 155.371 32.4369 158.921 27.5189 156.081L-37.4404 118.577Z" fill="#2E61D0"/>
    <path d="M225.731 114.265C217.356 109.44 217.356 97.3555 225.731 92.5312L343.51 24.6831C351.871 19.8669 362.311 25.9013 362.311 35.5498L362.311 171.246C362.311 180.895 351.871 186.929 343.51 182.113L225.731 114.265Z" fill="#2E61D0"/>
    <path d="M342.391 93.1381C337.468 90.2959 337.468 83.1903 342.391 80.348L374.713 61.6871C379.636 58.8448 385.789 62.3976 385.789 68.0821L385.789 105.404C385.789 111.089 379.636 114.641 374.713 111.799L342.391 93.1381Z" fill="#4F86FF"/>
    <path d="M195.328 50.3445C200.251 47.5023 200.251 40.3967 195.328 37.5545L162.659 18.6932C157.736 15.8509 151.583 19.4037 151.583 25.0882L151.583 62.8108C151.583 68.4953 157.736 72.048 162.659 69.2058L195.328 50.3445Z" fill="#4F86FF"/>
    <path d="M7.41998 209.076C10.3757 207.369 10.3757 203.103 7.41998 201.396L-7.4727 192.798C-10.4284 191.092 -14.123 193.225 -14.123 196.638L-14.123 213.834C-14.123 217.247 -10.4284 219.38 -7.4727 217.674L7.41998 209.076Z" fill="#4F86FF"/>
    <path d="M107.691 226.828C110.647 225.121 110.647 220.855 107.691 219.148L81.4372 203.99C78.4815 202.284 74.7869 204.417 74.7869 207.83L74.7869 238.146C74.7869 241.559 78.4815 243.692 81.4372 241.985L107.691 226.828Z" fill="#2E61D0"/>
    <path d="M204.266 211.561C201.31 209.854 201.31 205.588 204.266 203.882L230.52 188.724C233.476 187.017 237.17 189.15 237.17 192.563L237.17 222.879C237.17 226.292 233.476 228.425 230.52 226.719L204.266 211.561Z" fill="#2E61D0"/>
    <path d="M300.521 208.983C297.566 207.276 297.566 203.01 300.521 201.304L315.414 192.706C318.37 190.999 322.064 193.132 322.064 196.545L322.064 213.742C322.064 217.155 318.37 219.288 315.414 217.581L300.521 208.983Z" fill="#4F86FF"/>
    <path d="M297.369 52.6468C300.325 50.9403 300.325 46.6741 297.369 44.9676L275.626 32.4139C272.67 30.7075 268.975 32.8406 268.975 36.2535L268.975 61.3609C268.975 64.7738 272.67 66.9069 275.626 65.2004L297.369 52.6468Z" fill="#4F86FF"/>
    <path d="M179.861 207.166C182.817 205.459 182.817 201.193 179.861 199.487L147.015 180.522C144.059 178.816 140.364 180.949 140.364 184.362L140.364 222.29C140.364 225.703 144.059 227.836 147.015 226.13L179.861 207.166Z" fill="#4F86FF"/>
    <path d="M303.76 227.528C306.716 225.822 306.716 221.555 303.76 219.849L288.867 211.251C285.911 209.544 282.217 211.677 282.217 215.09L282.217 232.287C282.217 235.7 285.911 237.833 288.867 236.126L303.76 227.528Z" fill="#4F86FF"/>
</svg>
