<svg xmlns="http://www.w3.org/2000/svg" display="none">
    <symbol id="search" viewBox="0 0 15 15">
        <path d="M14.8582 14.1839L10.9854 10.3731C11.9996 9.27122 12.6227 7.81401 12.6227 6.21051C12.6222 2.78032 9.79685 0 6.31134 0C2.82583 0 0.000488281 2.78032 0.000488281 6.21051C0.000488281 9.6407 2.82583 12.421 6.31134 12.421C7.81732 12.421 9.19857 11.9001 10.2835 11.0341L14.1713 14.86C14.3607 15.0466 14.6683 15.0466 14.8577 14.86C15.0476 14.6734 15.0476 14.3705 14.8582 14.1839ZM6.31134 11.4655C3.36222 11.4655 0.971502 9.11277 0.971502 6.21051C0.971502 3.30825 3.36222 0.955524 6.31134 0.955524C9.26048 0.955524 11.6512 3.30825 11.6512 6.21051C11.6512 9.11277 9.26048 11.4655 6.31134 11.4655Z"/>
    </symbol>

    <symbol id="arrow-left" viewBox="0 0 17 12">
        <path d="M6.45089 10.4365C6.61634 10.5946 6.61634 10.8508 6.45089 11.0088L6.06062 11.3815C5.89517 11.5395 5.62692 11.5395 5.46147 11.3815L0.124087 6.28406C-0.0413661 6.12605 -0.0413642 5.86986 0.124087 5.71184L0.514351 5.33912C0.679804 5.18111 0.948058 5.18111 1.11351 5.33912L6.45089 10.4365Z"/>
        <path d="M5.46575 0.618511C5.63121 0.460497 5.89946 0.460497 6.06491 0.618511L6.45518 0.991232C6.62063 1.14925 6.62063 1.40544 6.45518 1.56345L1.1178 6.66088C0.952345 6.81889 0.684094 6.81889 0.518641 6.66088L0.128375 6.28816C-0.0370784 6.13014 -0.0370784 5.87395 0.128375 5.71594L5.46575 0.618511Z"/>
        <path d="M17 6.14622C17 6.36969 16.8103 6.55084 16.5763 6.55084L1.83908 6.55084C1.60509 6.55084 1.41541 6.36969 1.41541 6.14622L1.41541 5.45764C1.41541 5.23417 1.60509 5.05301 1.83908 5.05301L16.5763 5.05302C16.8103 5.05302 17 5.23417 17 5.45764L17 6.14622Z"/>
    </symbol>

    <symbol id="image" viewBox="0 0 30 30">
        <path d="M27.1883 13.75V21.25C27.2617 21.8833 27.1909 22.5251 26.9813 23.1272C26.7717 23.7293 26.4287 24.2762 25.9778 24.727C25.527 25.1779 24.9801 25.5209 24.3779 25.7305C23.7758 25.9402 23.1341 26.0109 22.5008 25.9375H7.50078C6.86745 26.0109 6.22573 25.9402 5.62361 25.7305C5.02149 25.5209 4.47456 25.1779 4.02373 24.727C3.5729 24.2762 3.22985 23.7293 3.02024 23.1272C2.81062 22.5251 2.73987 21.8833 2.81328 21.25V8.75C2.73987 8.11668 2.81062 7.47495 3.02024 6.87283C3.22985 6.27071 3.5729 5.72378 4.02373 5.27295C4.47456 4.82212 5.02149 4.47907 5.62361 4.26946C6.22573 4.05985 6.86745 3.98909 7.50078 4.0625H16.2508C16.4994 4.0625 16.7379 4.16127 16.9137 4.33709C17.0895 4.5129 17.1883 4.75136 17.1883 5C17.1883 5.24864 17.0895 5.4871 16.9137 5.66291C16.7379 5.83873 16.4994 5.9375 16.2508 5.9375H7.50078C5.52953 5.9375 4.68828 6.77875 4.68828 8.75V20.3125L7.86328 17.1375C8.09929 16.9033 8.41829 16.7719 8.75078 16.7719C9.08326 16.7719 9.40227 16.9033 9.63828 17.1375L10.8133 18.3125C10.9301 18.427 11.0872 18.4912 11.2508 18.4912C11.4144 18.4912 11.5714 18.427 11.6883 18.3125L17.8633 12.1375C18.0993 11.9033 18.4183 11.7719 18.7508 11.7719C19.0833 11.7719 19.4023 11.9033 19.6383 12.1375L25.3133 17.8125V13.75C25.3133 13.5014 25.412 13.2629 25.5879 13.0871C25.7637 12.9113 26.0021 12.8125 26.2508 12.8125C26.4994 12.8125 26.7379 12.9113 26.9137 13.0871C27.0895 13.2629 27.1883 13.5014 27.1883 13.75ZM9.99203 9.6875C9.57701 9.68866 9.17942 9.85449 8.88658 10.1486C8.59373 10.4426 8.42957 10.8409 8.43015 11.2559C8.43073 11.6709 8.596 12.0688 8.88967 12.362C9.18334 12.6553 9.58139 12.82 9.9964 12.82C10.4114 12.82 10.8095 12.6553 11.1031 12.362C11.3968 12.0688 11.5621 11.6709 11.5627 11.2559C11.5632 10.8409 11.3991 10.4426 11.1062 10.1486C10.8134 9.85449 10.4158 9.68866 10.0008 9.6875H9.99203ZM21.2508 7.1875H22.8133V8.75C22.8133 8.99864 22.912 9.2371 23.0879 9.41291C23.2637 9.58873 23.5021 9.6875 23.7508 9.6875C23.9994 9.6875 24.2379 9.58873 24.4137 9.41291C24.5895 9.2371 24.6883 8.99864 24.6883 8.75V7.1875H26.2508C26.4994 7.1875 26.7379 7.08873 26.9137 6.91291C27.0895 6.7371 27.1883 6.49864 27.1883 6.25C27.1883 6.00136 27.0895 5.7629 26.9137 5.58709C26.7379 5.41127 26.4994 5.3125 26.2508 5.3125H24.6883V3.75C24.6883 3.50136 24.5895 3.2629 24.4137 3.08709C24.2379 2.91127 23.9994 2.8125 23.7508 2.8125C23.5021 2.8125 23.2637 2.91127 23.0879 3.08709C22.912 3.2629 22.8133 3.50136 22.8133 3.75V5.3125H21.2508C21.0021 5.3125 20.7637 5.41127 20.5879 5.58709C20.412 5.7629 20.3133 6.00136 20.3133 6.25C20.3133 6.49864 20.412 6.7371 20.5879 6.91291C20.7637 7.08873 21.0021 7.1875 21.2508 7.1875Z"/>
    </symbol>

    <symbol id="phone" viewBox="0 0 16 16">
        <path d="M6.62534 9.37471C5.09817 7.84754 4.75334 6.32037 4.67555 5.70851C4.65381 5.53933 4.71203 5.36966 4.83306 5.24947L6.06893 4.01416C6.25072 3.83248 6.28299 3.54933 6.14672 3.3314L4.179 0.275955C4.02824 0.034644 3.7187 -0.0524474 3.46424 0.0748512L0.305339 1.56258C0.0995625 1.6639 -0.0214727 1.88254 0.00189102 2.11071C0.167408 3.68313 0.852925 7.54851 4.65155 11.3474C8.45017 15.1463 12.315 15.8315 13.8882 15.9971C14.1164 16.0204 14.3351 15.8994 14.4364 15.6936L15.9241 12.5347C16.0509 12.2808 15.9644 11.9721 15.7241 11.8211L12.6687 9.85389C12.4509 9.71748 12.1677 9.74951 11.9859 9.93113L10.7506 11.167C10.6304 11.288 10.4607 11.3462 10.2915 11.3245C9.67969 11.2467 8.15251 10.9019 6.62534 9.37471Z"/>
        <path d="M12.6896 8.55177C12.3849 8.55177 12.1379 8.30475 12.1379 8.00005C12.1353 5.7158 10.2842 3.8647 7.99997 3.86212C7.69526 3.86212 7.44824 3.6151 7.44824 3.31039C7.44824 3.00568 7.69526 2.75867 7.99997 2.75867C10.8934 2.76186 13.2382 5.10664 13.2413 8.00005C13.2413 8.30475 12.9943 8.55177 12.6896 8.55177Z"/>
        <path d="M15.4483 8.55172C15.1435 8.55172 14.8965 8.30471 14.8965 8C14.8923 4.1929 11.8071 1.1077 7.99997 1.10345C7.69526 1.10345 7.44824 0.856433 7.44824 0.551724C7.44824 0.247015 7.69526 0 7.99997 0C12.4162 0.00486507 15.9951 3.58374 16 8C16 8.14633 15.9419 8.28666 15.8384 8.39013C15.7349 8.4936 15.5946 8.55172 15.4483 8.55172Z"/>
    </symbol>

    <symbol id="mail" viewBox="0 0 16 12">
        <path d="M15.8588 1.17883L11.0063 6.00005L15.8588 10.8213C15.9465 10.6379 15.9998 10.4352 15.9998 10.2188V1.7813C15.9998 1.56483 15.9465 1.36218 15.8588 1.17883Z"/>
        <path d="M14.5937 0.375H1.40618C1.18971 0.375 0.987055 0.428219 0.803711 0.515938L7.00568 6.68666C7.55406 7.23503 8.44581 7.23503 8.99418 6.68666L15.1962 0.515938C15.0128 0.428219 14.8102 0.375 14.5937 0.375Z"/>
        <path d="M0.140937 1.17883C0.0532187 1.36218 0 1.56483 0 1.7813V10.2188C0 10.4353 0.0532187 10.638 0.140937 10.8213L4.9934 6.00005L0.140937 1.17883Z"/>
        <path d="M10.3437 6.66284L9.65703 7.3495C8.74331 8.26321 7.25653 8.26321 6.34281 7.3495L5.65618 6.66284L0.803711 11.4841C0.987055 11.5718 1.18971 11.625 1.40618 11.625H14.5937C14.8102 11.625 15.0128 11.5718 15.1962 11.4841L10.3437 6.66284Z"/>
    </symbol>

    <symbol id="location" viewBox="0 0 16 16">
        <path d="M7.99967 0C4.80452 0 2.20508 2.59944 2.20508 5.79456C2.20508 9.75981 7.39067 15.581 7.61145 15.8269C7.81883 16.0579 8.18089 16.0575 8.38789 15.8269C8.60867 15.581 13.7943 9.75981 13.7943 5.79456C13.7942 2.59944 11.1948 0 7.99967 0ZM7.99967 8.70997C6.39211 8.70997 5.0843 7.40212 5.0843 5.79456C5.0843 4.187 6.39214 2.87919 7.99967 2.87919C9.6072 2.87919 10.915 4.18703 10.915 5.79459C10.915 7.40216 9.6072 8.70997 7.99967 8.70997Z"/>
    </symbol>

    <symbol id="clock" viewBox="0 0 16 16">
        <path d="M8 0C3.58862 0 0 3.58862 0 8C0 12.4114 3.58862 16 8 16C12.4114 16 16 12.4114 16 8C16 3.58862 12.4114 0 8 0ZM11.8047 12.1379C11.6747 12.2679 11.504 12.3334 11.3334 12.3334C11.1627 12.3334 10.9919 12.2679 10.8621 12.1379L7.52869 8.80469C7.40332 8.68005 7.33337 8.51062 7.33337 8.33337V4C7.33337 3.63135 7.63196 3.33337 8 3.33337C8.36804 3.33337 8.66663 3.63135 8.66663 4V8.05737L11.8047 11.1953C12.0653 11.4561 12.0653 11.8773 11.8047 12.1379V12.1379Z"/>
    </symbol>

    <symbol id="prev" viewBox="0 0 22 38">
        <path d="M20 2L3 19L20 36" stroke-width="3" stroke-linecap="round"/>
    </symbol>

    <symbol id="next" viewBox="0 0 22 38">
        <path d="M2 36L19 19L2 2" stroke-width="3" stroke-linecap="round"/>
    </symbol>

    <symbol id="close" viewBox="0 0 20 20">
        <path d="M1 1L19 19"/>
        <path d="M1 19L19 0.999999"/>
    </symbol>

    <symbol id="clear-filter" viewBox="0 0 9 9">
        <path d="M0.375 1.17316L1.43566 0.112497L8.47475 7.15159L7.41409 8.21225L0.375 1.17316Z"/>
        <path d="M7.41443 0L8.47509 1.06066L1.436 8.09975L0.375337 7.03909L7.41443 0Z"/>
    </symbol>


    <symbol id="filter" viewBox="0 0 16 16">
        <g>
            <path d="M6.77967 15.0132C6.51159 15.0147 6.25003 14.9306 6.03301 14.7732C5.86884 14.6553 5.73492 14.5002 5.64222 14.3206C5.54952 14.141 5.50068 13.942 5.49967 13.7399V9.77324C5.4988 9.70736 5.47525 9.6438 5.43301 9.59324L1.14634 4.69991C0.948069 4.46447 0.837363 4.16768 0.833008 3.85991V2.25991C0.83477 1.92159 0.970404 1.59772 1.21026 1.35912C1.45012 1.12051 1.77468 0.986568 2.11301 0.986572H13.8863C14.2247 0.986568 14.5492 1.12051 14.7891 1.35912C15.0289 1.59772 15.1646 1.92159 15.1663 2.25991V3.85991C15.162 4.16768 15.0513 4.46447 14.853 4.69991L10.5663 9.59324C10.525 9.64432 10.5016 9.70756 10.4997 9.77324V12.9199C10.4996 13.1882 10.4153 13.4496 10.2585 13.6673C10.1018 13.885 9.88069 14.048 9.62634 14.1332L7.17968 14.9532C7.05017 14.9935 6.91528 15.0137 6.77967 15.0132ZM2.11301 1.99991C2.07656 1.99902 2.0403 2.00543 2.00636 2.01877C1.97242 2.0321 1.9415 2.0521 1.91541 2.07757C1.88932 2.10304 1.86858 2.13347 1.85443 2.16708C1.84028 2.20068 1.833 2.23678 1.83301 2.27324V3.87324C1.83389 3.93912 1.85743 4.00268 1.89967 4.05324L6.18634 8.93324C6.38461 9.16868 6.49532 9.46547 6.49967 9.77324V13.7399C6.50042 13.7838 6.51099 13.8269 6.5306 13.8661C6.55021 13.9053 6.57837 13.9397 6.61301 13.9666C6.65018 13.9904 6.69216 14.0058 6.73595 14.0116C6.77974 14.0173 6.82427 14.0133 6.86634 13.9999L9.33301 13.1866C9.38928 13.1683 9.4383 13.1326 9.47303 13.0847C9.50777 13.0368 9.52643 12.9791 9.52634 12.9199V9.77324C9.5307 9.46547 9.6414 9.16868 9.83967 8.93324L14.1263 4.03991C14.1686 3.98935 14.1921 3.92578 14.193 3.85991V2.25991C14.1915 2.22216 14.1821 2.18514 14.1655 2.1512C14.1489 2.11725 14.1255 2.08711 14.0967 2.06268C14.0679 2.03825 14.0343 2.02006 13.9981 2.00925C13.9619 1.99845 13.9238 1.99527 13.8863 1.99991H2.11301Z"/>
            <path d="M14.6663 4.5H1.33301C1.2004 4.5 1.07322 4.44732 0.979454 4.35355C0.885686 4.25979 0.833008 4.13261 0.833008 4C0.833008 3.86739 0.885686 3.74021 0.979454 3.64645C1.07322 3.55268 1.2004 3.5 1.33301 3.5H14.6663C14.799 3.5 14.9261 3.55268 15.0199 3.64645C15.1137 3.74021 15.1663 3.86739 15.1663 4C15.1663 4.13261 15.1137 4.25979 15.0199 4.35355C14.9261 4.44732 14.799 4.5 14.6663 4.5Z"/>
        </g>
    </symbol>

    <symbol id="sorting" viewBox="0 0 16 16">
        <g>
            <path fill-rule="evenodd" clip-rule="evenodd"
                  d="M4.74963 4.4001C4.57201 5.09017 3.94559 5.60008 3.20006 5.60008C2.31642 5.60008 1.6001 4.88376 1.6001 4.00011C1.6001 3.11647 2.31642 2.40015 3.20006 2.40015C3.94559 2.40015 4.57201 2.91006 4.74963 3.60012H15.6001C15.8209 3.60012 16 3.77918 16 4.00011C16 4.22104 15.8209 4.4001 15.6001 4.4001H4.74963ZM4.00005 4.00011C4.00005 4.44198 3.64184 4.8001 3.20006 4.8001C2.75828 4.8001 2.40008 4.44189 2.40008 4.00011C2.40008 3.55833 2.75828 3.20013 3.20006 3.20013C3.64184 3.20013 4.00005 3.55825 4.00005 4.00011Z"/>
            <path d="M0.399992 4.40008H1.65037C1.61744 4.27227 1.59997 4.1382 1.59997 4.00009C1.59997 3.86197 1.61744 3.72791 1.65037 3.6001H0.399992C0.179059 3.6001 0 3.77916 0 4.00009C0 4.22102 0.179059 4.40008 0.399992 4.40008Z"/>
            <path fill-rule="evenodd" clip-rule="evenodd"
                  d="M9.54957 11.6001C9.37194 10.9101 8.74545 10.4001 8 10.4001C7.25455 10.4001 6.62797 10.9101 6.45043 11.6001H0.399992C0.179059 11.6001 0 11.7793 0 12.0001C0 12.221 0.179059 12.4001 0.399992 12.4001H6.45035C6.62797 13.0902 7.25447 13.6001 7.99992 13.6001C8.74536 13.6001 9.37194 13.0902 9.54948 12.4001H15.5998C15.8207 12.4001 15.9998 12.221 15.9998 12.0001C15.9998 11.7793 15.8207 11.6001 15.5998 11.6001H9.54957ZM8 12.8001C8.44187 12.8001 8.79998 12.442 8.79998 12.0001C8.79998 11.5582 8.44187 11.2001 8 11.2001C7.55814 11.2001 7.20002 11.5582 7.20002 12.0001C7.20002 12.442 7.55814 12.8001 8 12.8001Z"/>
            <path fill-rule="evenodd" clip-rule="evenodd"
                  d="M14.3495 7.60012C14.1719 6.91006 13.5454 6.40015 12.8 6.40015C12.0545 6.40015 11.428 6.91006 11.2504 7.60012H0.399992C0.179059 7.60012 0 7.77926 0 8.00011C0 8.22096 0.179059 8.4001 0.399992 8.4001H11.2504C11.428 9.09017 12.0545 9.60008 12.8 9.60008C13.5454 9.60008 14.172 9.09017 14.3495 8.4001H15.5999C15.8208 8.4001 15.9999 8.22096 15.9999 8.00011C15.9999 7.77926 15.8208 7.60012 15.5999 7.60012H14.3495ZM12.8 8.8001C13.2418 8.8001 13.6 8.44198 13.6 8.00011C13.6 7.55825 13.2418 7.20013 12.8 7.20013C12.3581 7.20013 12 7.55825 12 8.00011C12 8.44198 12.3581 8.8001 12.8 8.8001Z"/>
        </g>
    </symbol>

    <symbol id="play" viewBox="0 0 11 14">
        <path d="M10.5 6.13397C11.1667 6.51888 11.1667 7.48112 10.5 7.86602L1.5 13.0622C0.833332 13.4471 3.43203e-07 12.966 3.76852e-07 12.1962L8.31114e-07 1.80385C8.64763e-07 1.03405 0.833334 0.552922 1.5 0.937822L10.5 6.13397Z"/>
    </symbol>

    <symbol id="arrow-right" viewBox="0 0 26 18">
        <path d="M16.1339 1.7402C15.8809 1.48163 15.8809 1.0624 16.1339 0.803834L16.7308 0.193927C16.9839 -0.0646423 17.3941 -0.0646422 17.6472 0.193927L25.8102 8.53517C26.0633 8.79374 26.0633 9.21296 25.8102 9.47153L25.2133 10.0814C24.9603 10.34 24.55 10.34 24.297 10.0814L16.1339 1.7402Z"/>
        <path d="M17.6406 17.8061C17.3876 18.0646 16.9773 18.0646 16.7243 17.8061L16.1274 17.1962C15.8743 16.9376 15.8743 16.5184 16.1274 16.2598L24.2904 7.91856C24.5435 7.65999 24.9537 7.65999 25.2068 7.91856L25.8037 8.52847C26.0567 8.78704 26.0567 9.20626 25.8037 9.46483L17.6406 17.8061Z"/>
        <path d="M0 8.76073C0 8.39506 0.290103 8.09862 0.647962 8.09862H23.1873C23.5452 8.09862 23.8353 8.39506 23.8353 8.76073V9.8875C23.8353 10.2532 23.5452 10.5496 23.1873 10.5496H0.647963C0.290104 10.5496 0 10.2532 0 9.8875V8.76073Z"/>
    </symbol>


    <symbol id="arrow-bottom-filter" viewBox="0 0 10 7">
        <path d="M1 1L5 5L9 1" stroke-width="2"/>
    </symbol>


    <symbol id="whatsapp" viewBox="0 0 20 20">
        <path d="M16.6147 3.38606C15.0541 1.80986 12.9816 0.843235 10.771 0.66053C8.56047 0.477824 6.35739 1.09107 4.55916 2.38965C2.76093 3.68824 1.48594 5.58667 0.964162 7.74252C0.442384 9.89838 0.708169 12.1697 1.71358 14.1469L0.726643 18.9383C0.716403 18.986 0.716113 19.0353 0.725791 19.0831C0.73547 19.1309 0.754909 19.1762 0.782893 19.2162C0.823887 19.2768 0.882404 19.3235 0.950629 19.35C1.01885 19.3765 1.09354 19.3816 1.16471 19.3645L5.86074 18.2514C7.83232 19.2314 10.0876 19.4801 12.2254 18.9532C14.3631 18.4264 16.2446 17.1583 17.5351 15.3744C18.8256 13.5906 19.4413 11.4067 19.2728 9.2115C19.1043 7.01627 18.1624 4.95202 16.6147 3.38606V3.38606ZM15.1505 15.0724C14.0707 16.1492 12.6803 16.86 11.1751 17.1046C9.66995 17.3493 8.12596 17.1154 6.76074 16.4361L6.10619 16.1122L3.22721 16.794L3.23574 16.7582L3.83233 13.8605L3.51187 13.2281C2.8143 11.8581 2.56823 10.3025 2.80889 8.78409C3.04956 7.26569 3.76462 5.8624 4.85165 4.77527C6.21751 3.40983 8.06976 2.64277 10.0011 2.64277C11.9324 2.64277 13.7847 3.40983 15.1505 4.77527C15.1621 4.78861 15.1747 4.80114 15.188 4.81277C16.5369 6.18173 17.29 8.02845 17.283 9.95033C17.2759 11.8722 16.5094 13.7134 15.1505 15.0724V15.0724Z"/>
        <path d="M14.8954 12.9466C14.5426 13.5023 13.9852 14.1824 13.2846 14.3512C12.0573 14.6478 10.1738 14.3614 7.83007 12.1762L7.80109 12.1506C5.74029 10.2398 5.20507 8.64948 5.33461 7.38812C5.4062 6.67221 6.00279 6.02448 6.50563 5.60175C6.58513 5.53391 6.6794 5.4856 6.78091 5.4607C6.88241 5.4358 6.98834 5.43499 7.09021 5.45835C7.19208 5.4817 7.28708 5.52857 7.3676 5.59521C7.44812 5.66184 7.51193 5.74639 7.55393 5.8421L8.31245 7.54664C8.36174 7.65716 8.38001 7.77902 8.3653 7.89913C8.35058 8.01925 8.30344 8.1331 8.22893 8.22845L7.84541 8.72618C7.76311 8.82895 7.71346 8.954 7.70282 9.08523C7.69219 9.21646 7.72107 9.34786 7.78575 9.46254C8.00052 9.83925 8.51529 10.3932 9.08631 10.9063C9.72722 11.4858 10.438 12.0159 10.888 12.1966C11.0084 12.2458 11.1408 12.2578 11.2681 12.2311C11.3954 12.2044 11.5118 12.1401 11.6022 12.0466L12.0471 11.5983C12.133 11.5137 12.2397 11.4533 12.3565 11.4234C12.4733 11.3934 12.5959 11.395 12.7119 11.4279L14.5136 11.9392C14.613 11.9697 14.7041 12.0225 14.7799 12.0936C14.8558 12.1647 14.9143 12.2522 14.9512 12.3494C14.988 12.4466 15.0022 12.551 14.9925 12.6545C14.9828 12.758 14.9496 12.8579 14.8954 12.9466V12.9466Z"/>
    </symbol>




</svg>