<svg width="26" height="26" viewBox="0 0 26 26" fill="none" xmlns="http://www.w3.org/2000/svg">
    <path d="M24.302 11.1719L19.2409 16.1054L20.4361 23.0734C20.4881 23.3781 20.363 23.686 20.1127 23.868C19.9713 23.9712 19.8031 24.0232 19.635 24.0232C19.5058 24.0232 19.3758 23.9923 19.2571 23.9298L12.9993 20.6399L6.74221 23.9289C6.46921 24.0736 6.1369 24.05 5.88665 23.8672C5.6364 23.6852 5.51127 23.3773 5.56327 23.0726L6.75846 16.1046L1.69659 11.1719C1.47559 10.9558 1.39515 10.6324 1.49102 10.3391C1.5869 10.0458 1.84121 9.83044 2.14752 9.78575L9.14234 8.77013L12.2705 2.431C12.5443 1.87607 13.4543 1.87607 13.7281 2.431L16.8562 8.77013L23.851 9.78575C24.1573 9.83044 24.4116 10.0449 24.5075 10.3391C24.6034 10.6332 24.523 10.9549 24.302 11.1719Z" fill="#3570F2"/>
</svg>
