<svg width="26" height="26" viewBox="0 0 26 26" fill="none" xmlns="http://www.w3.org/2000/svg">
    <path d="M24.5077 10.3382C24.4118 10.0441 24.1575 9.82962 23.8512 9.78493L16.8563 8.76931L13.7282 2.43018C13.4544 1.87524 12.5444 1.87524 12.2706 2.43018L9.14247 8.76931L2.14766 9.78493C1.84135 9.82962 1.58704 10.0441 1.49116 10.3382C1.39529 10.6324 1.47491 10.9549 1.69672 11.1711L6.75779 16.1046L5.5626 23.0726C5.5106 23.3772 5.63572 23.6852 5.88597 23.8672C6.13704 24.0508 6.46854 24.0736 6.74154 23.9289L12.9994 20.6399L19.2565 23.9289C19.3751 23.9915 19.5051 24.0224 19.6343 24.0224C19.8025 24.0224 19.9707 23.9704 20.112 23.8672C20.3623 23.6852 20.4874 23.3772 20.4354 23.0726L19.2402 16.1046L24.3013 11.1711C24.5231 10.9549 24.6027 10.6324 24.5077 10.3382ZM17.7997 15.2401C17.6087 15.4261 17.521 15.6959 17.5657 15.9591L18.5545 21.7254L13.3764 19.0036C13.2594 18.941 13.1294 18.9093 12.9994 18.9093C12.8694 18.9093 12.7394 18.9402 12.6216 19.0027L7.44354 21.7246L8.43235 15.9583C8.47704 15.6951 8.3901 15.4261 8.19835 15.2392L4.00991 11.1564L9.79816 10.3155C10.063 10.2773 10.2913 10.1107 10.41 9.87106L12.9994 4.62556L15.588 9.87106C15.7067 10.1107 15.935 10.2773 16.1998 10.3155L21.9881 11.1564L17.7997 15.2401Z" fill="#3570F2"/>
</svg>
